<svg xmlns="http://www.w3.org/2000/svg" xmlns:xlink="http://www.w3.org/1999/xlink" id="Layer_1" x="0" y="0" version="1.1" viewBox="0 0 32 32" xml:space="preserve" style="enable-background:new 0 0 32 32"><style type="text/css">.Blue{fill:#1177d7}</style><g id="ChangeView"><path d="M24.5,7.5C22.3,5.3,19.3,4,16,4C10.1,4,5.1,8.3,4.2,14h4.1c0.9-3.4,4-6,7.7-6c2.2,0,4.2,0.9,5.6,2.4L18,14 h5.7h4.1H28V4L24.5,7.5z M16,24c-2.2,0-4.2-0.9-5.6-2.4L14,18H8.2h-4H4v10l3.5-3.5C9.7,26.7,12.7,28,16,28c5.9,0,10.8-4.3,11.8-10 h-4.1C22.8,21.4,19.7,24,16,24z" class="Blue"/></g></svg>