<svg xmlns="http://www.w3.org/2000/svg" xmlns:xlink="http://www.w3.org/1999/xlink" id="Layer_1" x="0" y="0" version="1.1" viewBox="0 0 32 32" xml:space="preserve" style="enable-background:new 0 0 32 32"><style type="text/css">.Red{fill:#d11c1c}</style><g id="Close"><path d="M16,2C8.3,2,2,8.3,2,16s6.3,14,14,14s14-6.3,14-14S23.7,2,16,2z M23.7,21.7c0.4,0.4,0.4,1,0,1.4l-0.6,0.6 c-0.4,0.4-1,0.4-1.4,0L16,18l-5.7,5.7c-0.4,0.4-1,0.4-1.4,0l-0.6-0.6c-0.4-0.4-0.4-1,0-1.4L14,16l-5.7-5.7c-0.4-0.4-0.4-1,0-1.4 l0.6-0.6c0.4-0.4,1-0.4,1.4,0L16,14l5.7-5.7c0.4-0.4,1-0.4,1.4,0l0.6,0.6c0.4,0.4,0.4,1,0,1.4L18,16L23.7,21.7z" class="Red"/></g></svg>