<svg xmlns="http://www.w3.org/2000/svg" xmlns:xlink="http://www.w3.org/1999/xlink" id="Layer_1" x="0" y="0" version="1.1" viewBox="0 0 32 32" xml:space="preserve" style="enable-background:new 0 0 32 32"><style type="text/css">.Red{fill:#d11c1c}</style><g id="Driving"><path d="M24,4H6L2,14v13c0,0.5,0.4,1,1,1h2c0.6,0,1-0.5,1-1v-3h18v3c0,0.5,0.4,1,1,1h2c0.6,0,1-0.5,1-1V14L24,4z M7.4,6h15.3l3.2,8H4.2L7.4,6z M8,20c-1.1,0-2-0.9-2-2s0.9-2,2-2s2,0.9,2,2S9.1,20,8,20z M22,20c-1.1,0-2-0.9-2-2s0.9-2,2-2 s2,0.9,2,2S23.1,20,22,20z" class="Red"/></g></svg>