<svg xmlns="http://www.w3.org/2000/svg" xmlns:xlink="http://www.w3.org/1999/xlink" id="Layer_1" x="0" y="0" version="1.1" viewBox="0 0 17 17" xml:space="preserve" style="enable-background:new 0 0 17 17"><style type="text/css">.Red{fill:#d11c1c}</style><path d="M10.5,8.5l4.1-4.1c0.6-0.6,0.6-1.5,0-2c-0.6-0.6-1.5-0.6-2,0L8.5,6.5L4.4,2.4c-0.6-0.6-1.5-0.6-2,0	c-0.6,0.6-0.6,1.5,0,2l4.1,4.1l-4.1,4.1c-0.6,0.6-0.6,1.5,0,2c0.6,0.6,1.5,0.6,2,0l4.1-4.1l4.1,4.1c0.6,0.6,1.5,0.6,2,0	c0.6-0.6,0.6-1.5,0-2L10.5,8.5z" class="Red"/></svg>