<svg xmlns="http://www.w3.org/2000/svg" xmlns:xlink="http://www.w3.org/1999/xlink" id="Layer_1" x="0" y="0" version="1.1" viewBox="0 0 32 32" xml:space="preserve" style="enable-background:new 0 0 32 32"><style type="text/css">.Blue{fill:#1177d7}.Green{fill:#039c23}</style><g id="ExpandCollapse"><path d="M9,0C4,0,0,4,0,9s4,9,9,9c0.5,0,1-0.1,1.5-0.1c1.1-3.6,3.9-6.4,7.4-7.4c0-0.5,0.1-1,0.1-1.5C18,4,14,0,9,0z M14,10h-4v4H8v-4H4V8h4V4h2v4h4V10z" class="Green"/><path d="M21,12c-5,0-9,4-9,9s4,9,9,9s9-4,9-9S26,12,21,12z M26,22H16v-2h10V22z" class="Blue"/></g></svg>