<svg xmlns="http://www.w3.org/2000/svg" xmlns:xlink="http://www.w3.org/1999/xlink" id="Layer_1" x="0" y="0" version="1.1" viewBox="0 0 32 32" xml:space="preserve" style="enable-background:new 0 0 32 32"><style type="text/css">.Blue{fill:#1177d7}.Black{fill:#727272}</style><g id="FolderPanel"><path d="M31,0H1C0.5,0,0,0.5,0,1v28c0,0.5,0.5,1,1,1h30c0.5,0,1-0.5,1-1V1C32,0.5,31.5,0,31,0z M2,28V6h10v22H2z M30,28H14V6h16V28z" class="Black"/><path d="M10,12H4v-2h6V12z M10,14H4v2h6V14z M10,18H4v2h6V18z M10,22H4v2h6V22z" class="Blue"/></g></svg>