<svg xmlns="http://www.w3.org/2000/svg" xmlns:xlink="http://www.w3.org/1999/xlink" id="Слой_1" x="0" y="0" version="1.1" viewBox="0 0 32 32" xml:space="preserve" style="enable-background:new 0 0 32 32"><style type="text/css">.Black{fill:#727272}</style><g id="Слой_2"><path d="M10,28v-2h20v2H10z M10,22h20v2H10V22z M10,16h20v2H10V16z M10,12h20v2H10V12z M10,6h20v2H10V6z M10,2h20v2 H10V2z M5,28c-1.7,0-3-1.3-3-3c0-1.7,1.3-3,3-3c1.7,0,3,1.3,3,3C8,26.7,6.7,28,5,28z M5,24c-0.6,0-1,0.4-1,1s0.4,1,1,1 c0.6,0,1-0.4,1-1S5.6,24,5,24z M5,18c-1.7,0-3-1.3-3-3c0-1.7,1.3-3,3-3c1.7,0,3,1.3,3,3C8,16.7,6.7,18,5,18z M5,14 c-0.6,0-1,0.4-1,1c0,0.6,0.4,1,1,1c0.6,0,1-0.4,1-1C6,14.4,5.6,14,5,14z M5,8C3.3,8,2,6.7,2,5c0-1.7,1.3-3,3-3c1.7,0,3,1.3,3,3 C8,6.7,6.7,8,5,8z M5,4C4.4,4,4,4.4,4,5s0.4,1,1,1c0.6,0,1-0.4,1-1S5.6,4,5,4z" class="Black"/></g></svg>