<svg xmlns="http://www.w3.org/2000/svg" xmlns:xlink="http://www.w3.org/1999/xlink" id="Layer_1" x="0" y="0" version="1.1" viewBox="0 0 32 32" xml:space="preserve" style="enable-background:new 0 0 32 32"><style type="text/css">.Black{fill:#727272}.Green{fill:#039c23}</style><g id="NewOrder"><path d="M19,26c1.7,0,3,1.3,3,3s-1.3,3-3,3s-3-1.3-3-3S17.3,26,19,26z M6,22v-8v-2H0v2h4v10h20v-2H6z M6,29 c0,1.7,1.3,3,3,3s3-1.3,3-3s-1.3-3-3-3S6,27.3,6,29z M16.1,8H9C8.4,8,8,8.5,8,9v10c0,0.5,0.4,1,1,1h12c0.6,0,1-0.5,1-1v-3.5 C18.8,14.3,16.4,11.5,16.1,8z" class="Black"/><path d="M25,0c-3.9,0-7,3.1-7,7c0,3.9,3.1,7,7,7s7-3.1,7-7C32,3.1,28.9,0,25,0z M26,8v4h-2V8h-4V6h4V2h2v4h4v2H26z" class="Green"/></g></svg>