<svg xmlns="http://www.w3.org/2000/svg" xmlns:xlink="http://www.w3.org/1999/xlink" id="Слой_1" x="0" y="0" version="1.1" viewBox="0 0 32 32" xml:space="preserve" style="enable-background:new 0 0 32 32"><style type="text/css">.White{fill:#fff}.Blue{fill:#1177d7}.Green{fill:#039c23}</style><g id="Слой_2"><path d="M16,7c0,5,4,9,9,9c1.9,0,3.6-0.6,5-1.5V28H0V6h16.1C16,6.3,16,6.7,16,7z" class="Blue"/><path d="M25,0c3.9,0,7,3.1,7,7s-3.1,7-7,7s-7-3.1-7-7S21.1,0,25,0z" class="Green"/><path d="M30,8h-4v4h-2V8h-4V6h4V2h2v4h4V8z" class="White"/><path d="M13.6,15.8L8.5,21L7,19.5l5.1-5.1L9.8,12H16v6.2L13.6,15.8z" class="White"/><rect width="2" height="2" x="2" y="8" class="White"/><rect width="2" height="2" x="2" y="12" class="White"/><rect width="2" height="2" x="2" y="16" class="White"/><rect width="2" height="2" x="2" y="20" class="White"/><rect width="2" height="2" x="2" y="24" class="White"/><rect width="2" height="2" x="6" y="24" class="White"/><rect width="2" height="2" x="10" y="24" class="White"/><rect width="2" height="2" x="14" y="24" class="White"/><rect width="2" height="2" x="18" y="24" class="White"/><rect width="2" height="2" x="22" y="24" class="White"/><rect width="2" height="2" x="26" y="24" class="White"/></g></svg>