<svg xmlns="http://www.w3.org/2000/svg" xmlns:xlink="http://www.w3.org/1999/xlink" id="Layer_1" x="0" y="0" version="1.1" viewBox="0 0 32 32" xml:space="preserve" style="enable-background:new 0 0 32 32"><style type="text/css">.Yellow{fill:#ffb115}.Green{fill:#039c23}</style><g id="NewProduct"><path d="M16.5,28H3c-0.5,0-1-0.5-1-1V10h26v6.5c-0.9-0.3-1.9-0.5-3-0.5c-5,0-9,4-9,9C16,26.1,16.2,27.1,16.5,28z M28,3c0-0.5-0.5-1-1-1H3C2.5,2,2,2.5,2,3v5h26V3z" class="Yellow"/><path d="M25,18c-3.9,0-7,3.1-7,7s3.1,7,7,7s7-3.1,7-7S28.9,18,25,18z M26,26v4h-2v-4h-4v-2h4v-4h2v4h4v2H26z" class="Green"/></g></svg>