<svg xmlns="http://www.w3.org/2000/svg" xmlns:xlink="http://www.w3.org/1999/xlink" id="Layer_1" x="0" y="0" version="1.1" viewBox="0 0 32 32" xml:space="preserve" style="enable-background:new 0 0 32 32"><style type="text/css">.Blue{fill:#1177d7}.Black{fill:#727272}.st0{opacity:.5}</style><g id="PanelRight"><path d="M28,12h-6v-2h6V12z M28,14h-6v2h6V14z M28,18h-6v2h6V18z M28,22h-6v2h6V22z" class="Blue"/><g class="st0"><path d="M16,12h-6v-2h6V12z M16,14h-6v2h6V14z M16,18h-6v2h6V18z M16,22h-6v2h6V22z" class="Black"/></g><path d="M31,0H1C0.5,0,0,0.5,0,1v28c0,0.5,0.5,1,1,1h5h2h23c0.5,0,1-0.5,1-1V1C32,0.5,31.5,0,31,0z M2,28V6h4v22H2z M18,28H8V6h10V28z M30,28H20V6h10V28z" class="Black"/></g></svg>