<svg xmlns="http://www.w3.org/2000/svg" xmlns:xlink="http://www.w3.org/1999/xlink" id="Layer_1" x="0" y="0" version="1.1" viewBox="0 0 32 32" xml:space="preserve" style="enable-background:new 0 0 32 32"><style type="text/css">.Black{fill:#727272}.st0{opacity:.5}</style><g id="PanelOff"><path d="M31,0H1C0.5,0,0,0.5,0,1v28c0,0.5,0.5,1,1,1h30c0.5,0,1-0.5,1-1V1C32,0.5,31.5,0,31,0z M12,28H2V6h10V28z M30,28H14V6h16V28z" class="Black"/><g class="st0"><path d="M28,12H16v-2h12V12z M28,14H16v2h12V14z M28,18H16v2h12V18z M28,22H16v2h12V22z" class="Black"/></g></g></svg>