<svg xmlns="http://www.w3.org/2000/svg" xmlns:xlink="http://www.w3.org/1999/xlink" id="Layer_1" x="0" y="0" version="1.1" viewBox="0 0 32 32" xml:space="preserve" style="enable-background:new 0 0 32 32"><style type="text/css">.Blue{fill:#1177d7}.Black{fill:#727272}.st0{opacity:.5}</style><g id="PanelBottom"><path d="M31,0H1C0.5,0,0,0.5,0,1v28c0,0.5,0.5,1,1,1h30c0.5,0,1-0.5,1-1V1C32,0.5,31.5,0,31,0z M12,28H2V6h10V28z M30,28H14V18h16V28z M30,16H14V6h16V16z" class="Black"/><path d="M28,20H16v2h12V20z M28,24H16v2h12V24z" class="Blue"/><g class="st0"><path d="M28,8H16v2h12V8z M28,12H16v2h12V12z" class="Black"/></g></g></svg>