<svg xmlns="http://www.w3.org/2000/svg" xmlns:xlink="http://www.w3.org/1999/xlink" id="Слой_1" x="0" y="0" version="1.1" viewBox="0 0 32 32" xml:space="preserve" style="enable-background:new 0 0 32 32"><style type="text/css">.Black{fill:#727272}.White{fill:#fff}.st0{fill:#ffb115}.st1{opacity:.5}</style><g id="ProfileReport"><rect width="24" height="28" x="4" y="4" class="st0"/><path d="M24,6V2h-4l-0.6-0.6C18.5,0.5,17.3,0,16,0s-2.5,0.5-3.4,1.4L12,2H8v4H6v24h20V10V6H24z" class="Black"/><polyline points="24 28 8 28 8 8 20 8 24 8 24 12" class="White"/><g class="st1"><rect width="12" height="2" x="10" y="10" class="Black"/><rect width="12" height="2" x="10" y="14" class="Black"/><rect width="12" height="2" x="10" y="18" class="Black"/><rect width="8" height="2" x="10" y="22" class="Black"/></g></g></svg>