<svg xmlns="http://www.w3.org/2000/svg" xmlns:xlink="http://www.w3.org/1999/xlink" id="Слой_1" x="0" y="0" version="1.1" viewBox="0 0 32 32" xml:space="preserve" style="enable-background:new 0 0 32 32"><style type="text/css">.White{fill:#fff}.Red{fill:#d11c1c}.Black{fill:#727272}.st0{opacity:.6}</style><path d="M4,2v28h24V8V2H4z" class="Black"/><polygon points="26 16 26 4 6 4 6 28 16 28 16 30 28 30 28 16" class="White"/><g><polygon points="28 20 31 17 32 18 30 20 30 26 22 26 18 20" class="Red"/><rect width="4" height="4" x="8" y="14" class="Red"/><rect width="4" height="8" x="14" y="10" class="Red"/><rect width="4" height="12" x="20" y="6" class="Red"/><path d="M28,28c-1.1,0-2,0.9-2,2s0.9,2,2,2s2-0.9,2-2S29.1,28,28,28z M22,28c-1.1,0-2,0.9-2,2s0.9,2,2,2s2-0.9,2-2 S23.1,28,22,28z" class="Red"/></g><g class="st0"><g><rect width="8" height="2" x="8" y="20" class="Black"/><rect width="8" height="2" x="8" y="24" class="Black"/></g></g></svg>