<svg xmlns="http://www.w3.org/2000/svg" xmlns:xlink="http://www.w3.org/1999/xlink" id="Слой_1" x="0" y="0" version="1.1" viewBox="0 0 32 32" xml:space="preserve" style="enable-background:new 0 0 32 32"><style type="text/css">.Black{fill:#727272}.Red{fill:#d11c1c}.White{fill:#fff}.st0{opacity:.6}</style><path d="M4,2v28h24V8V2H4z" class="Black"/><polygon points="26 16 26 4 6 4 6 28 16 28 16 30 28 30 28 16" class="White"/><g><polygon points="22 20 19 17 18 18 20 20 20 26 28 26 32 20" class="Red"/><path d="M22,28c-1.1,0-2,0.9-2,2s0.9,2,2,2s2-0.9,2-2S23.1,28,22,28z M28,28c-1.1,0-2,0.9-2,2s0.9,2,2,2s2-0.9,2-2 S29.1,28,28,28z" class="Red"/></g><g class="st0"><rect width="16" height="2" x="8" y="6" class="Black"/><rect width="8" height="2" x="8" y="18" class="Black"/><rect width="8" height="2" x="8" y="22" class="Black"/><rect width="16" height="2" x="8" y="14" class="Black"/><rect width="16" height="2" x="8" y="10" class="Black"/></g></svg>