<svg xmlns="http://www.w3.org/2000/svg" xmlns:xlink="http://www.w3.org/1999/xlink" id="Слой_1" x="0" y="0" version="1.1" viewBox="0 0 32 32" xml:space="preserve" style="enable-background:new 0 0 32 32"><style type="text/css">.White{fill:#fff}.Black{fill:#727272}.Red{fill:#d11c1c}.st0{opacity:.6}</style><path d="M0,6h32v22H0V6z" class="Black"/><polygon points="30 14 30 8 2 8 2 26 18 26 18 28 32 28 32 14" class="White"/><path d="M22,24c-1.1,0-2,0.9-2,2s0.9,2,2,2s2-0.9,2-2S23.1,24,22,24z M28,24c-1.1,0-2,0.9-2,2s0.9,2,2,2s2-0.9,2-2	S29.1,24,28,24z M20,22h8l4-6H22l-3-3l-1,1l2,2V22z" class="Red"/><g id="Слой_2" class="st0"><polygon points="4 24 4 18 8 18 8 14 12 14 12 10 16 10 16 24" class="Black"/></g></svg>