<svg xmlns="http://www.w3.org/2000/svg" xmlns:xlink="http://www.w3.org/1999/xlink" id="Слой_1" x="0" y="0" version="1.1" viewBox="0 0 32 32" xml:space="preserve" style="enable-background:new 0 0 32 32"><style type="text/css">.White{fill:#fff}.Red{fill:#d11c1c}.Black{fill:#727272}</style><path d="M13,4C5.8,4,0,9.8,0,17s5.8,13,13,13c1.8,0,3.5-0.4,5-1V16h7.9C25.4,9.3,19.8,4,13,4z" class="Black"/><polygon points="14 2 16 2 16 0 10 0 10 2 12 2 12 6 14 6 14 6" class="Black"/><path d="M13,6c6.1,0,11,4.9,11,11s-4.9,11-11,11S2,23.1,2,17S6.9,6,13,6z" class="White"/><polygon points="18 12 24 18 30 12" class="Black"/><polygon points="22 20 19 17 18 18 20 20 20 26 28 26 32 20" class="Red"/><path d="M22,28c-1.1,0-2,0.9-2,2s0.9,2,2,2s2-0.9,2-2S23.1,28,22,28z M28,28c-1.1,0-2,0.9-2,2s0.9,2,2,2s2-0.9,2-2	S29.1,28,28,28z" class="Red"/><path d="M13.2,14L6,10l4,7.2c0.1,1.7,1.7,3.1,3.6,2.7c1.2-0.2,2.1-1.2,2.3-2.3C16.3,15.8,15,14.2,13.2,14z" class="Red"/></svg>