<svg xmlns="http://www.w3.org/2000/svg" xmlns:xlink="http://www.w3.org/1999/xlink" id="Слой_1" x="0" y="0" version="1.1" viewBox="0 0 32 32" xml:space="preserve" style="enable-background:new 0 0 32 32"><style type="text/css">.Black{fill:#727272}.White{fill:#fff}.Red{fill:#d11c1c}.st0{opacity:.6}</style><polygon points="26 8 26 4 24 4 24 8 18 8 18 4 8 4 8 8 4 8 2 8 2 4 0 4 0 28 4 28 4 32 30 32 30 8" class="Black"/><polygon points="28 18 28 10 26 10 26 18 24 18 24 12 2 12 2 26 16 26 16 28 6 28 6 30 16 30 16 32 30 32 30 18" class="White"/><path d="M4,6h2V2H4V6z M20,2v4h2V2H20z" class="Black"/><g id="Слой_2" class="st0"><path d="M4,24h2v-2H4V24z M4,20h2v-2H4V20z M8,20h2v-2H8V20z M8,16h2v-2H8V16z M12,16h2v-2h-2V16z M12,20h2v-2h-2V20 z M4,16h2v-2H4V16z M8,24h2v-2H8V24z M12,24h2v-2h-2V24z M16,16h2v-2h-2V16z M20,14v2h2v-2H20z" class="Black"/></g><polygon points="20 20 17 17 16 18 18 20 18 26 26 26 30 20" class="Red"/><path d="M20,28c-1.1,0-2,0.9-2,2s0.9,2,2,2s2-0.9,2-2S21.1,28,20,28z M26,28c-1.1,0-2,0.9-2,2s0.9,2,2,2s2-0.9,2-2	S27.1,28,26,28z" class="Red"/></svg>