<svg xmlns="http://www.w3.org/2000/svg" xmlns:xlink="http://www.w3.org/1999/xlink" id="Слой_1" x="0" y="0" version="1.1" viewBox="0 0 32 32" xml:space="preserve" style="enable-background:new 0 0 32 32"><style type="text/css">.White{fill:#fff}.Black{fill:#727272}.Yellow{fill:#ffb115}.Red{fill:#d11c1c}</style><rect width="20" height="18" x="6" y="12" class="White"/><g><g><path d="M18,26c-1.1,0-2,0.9-2,2c0,1.1,0.9,2,2,2c1.1,0,2-0.9,2-2C20,26.9,19.1,26,18,26z M24,26c-1.1,0-2,0.9-2,2 c0,1.1,0.9,2,2,2c1.1,0,2-0.9,2-2C26,26.9,25.1,26,24,26z M15,15l-1,1l2,2v6h8l4-6H18L15,15z M2,2v10h26V2H2z" class="Red"/></g></g><g><rect width="2" height="6" x="4" y="4" class="Yellow"/><rect width="2" height="6" x="8" y="4" class="Yellow"/><rect width="2" height="6" x="12" y="4" class="Yellow"/><rect width="2" height="6" x="16" y="4" class="Yellow"/><rect width="2" height="6" x="20" y="4" class="Yellow"/><rect width="2" height="6" x="24" y="4" class="Yellow"/></g><g><rect width="2" height="4" x="24" y="12" class="Black"/><polyline points="6 28 6 12 4 12 4 30 14 30 14 28" class="Black"/></g></svg>