<svg xmlns="http://www.w3.org/2000/svg" xmlns:xlink="http://www.w3.org/1999/xlink" id="Layer_1" x="0" y="0" version="1.1" viewBox="0 0 32 32" xml:space="preserve" style="enable-background:new 0 0 32 32"><style type="text/css">.Black{fill:#727272}</style><g id="Save"><g><path d="M27,4h-3v10H8V4H5C4.4,4,4,4.4,4,5v22c0,0.6,0.4,1,1,1h22c0.6,0,1-0.4,1-1V5C28,4.4,27.6,4,27,4z M24,24H8 v-6h16V24z M10,4v8h10V4H10z M14,10h-2V6h2V10z" class="Black"/></g><g><path d="M27,4h-3v10H8V4H5C4.4,4,4,4.4,4,5v22c0,0.6,0.4,1,1,1h22c0.6,0,1-0.4,1-1V5C28,4.4,27.6,4,27,4z M24,24H8 v-6h16V24z M10,4v8h10V4H10z M14,10h-2V6h2V10z" class="Black"/></g></g></svg>