<svg xmlns="http://www.w3.org/2000/svg" xmlns:xlink="http://www.w3.org/1999/xlink" id="Слой_1" x="0" y="0" version="1.1" viewBox="0 0 32 32" xml:space="preserve" style="enable-background:new 0 0 32 32"><style type="text/css">.White{fill:#fff}.Black{fill:#727272}.Blue{fill:#1177d7}.Red{fill:#d11c1c}.st0{opacity:.6}</style><polygon points="26 4 26 8 20 8 20 4 10 4 10 8 4 8 4 4 2 4 2 28 28 28 28 4" class="Black"/><path d="M21,28v-2H4V12h17h7v14v2H21z" class="White"/><path d="M10,20v-6h6v6H10z M12,16v2h2v-2H12z" class="Red"/><path d="M32,22l-5,6l-5-6h4v-8h2v8H32z" class="Blue"/><path d="M6,6h2V2H6V6z M22,2v4h2V2H22z" class="Black"/><g id="Слой_2" class="st0"><path d="M6,24h2v-2H6V24z M6,20h2v-2H6V20z M6,16h2v-2H6V16z M10,24h2v-2h-2V24z M14,24h2v-2h-2V24z M18,24h2v-2h-2 V24z M18,20h2v-2h-2V20z M18,16h2v-2h-2V16z M22,20h2v-2h-2V20z M22,14v2h2v-2H22z" class="Black"/></g></svg>