<svg xmlns="http://www.w3.org/2000/svg" xmlns:xlink="http://www.w3.org/1999/xlink" id="Layer_1" x="0" y="0" version="1.1" viewBox="0 0 32 32" xml:space="preserve" style="enable-background:new 0 0 32 32"><style type="text/css">.Blue{fill:#1177d7}.Black{fill:#727272}.st0{opacity:.5}</style><g id="TaskList"><path d="M29,0H3C2.5,0,2,0.5,2,1v28c0,0.5,0.5,1,1,1h26c0.5,0,1-0.5,1-1V1C30,0.5,29.5,0,29,0z M28,28H4V2h24V28z" class="Black"/><g class="st0"><path d="M24,8H12V6h12V8z M24,10H12v2h12V10z M24,14H12v2h12V14z M24,18H12v2h12V18z M24,22H12v2h12V22z" class="Black"/></g><path d="M10,8H8V6h2V8z M10,10H8v2h2V10z M10,14H8v2h2V14z M10,18H8v2h2V18z M10,22H8v2h2V22z" class="Blue"/></g></svg>