<svg xmlns="http://www.w3.org/2000/svg" xmlns:xlink="http://www.w3.org/1999/xlink" id="Layer_1" x="0" y="0" version="1.1" viewBox="0 0 32 32" xml:space="preserve" style="enable-background:new 0 0 32 32"><style type="text/css">.Yellow{fill:#ffb115}.Green{fill:#039c23}.Black{fill:#727272}</style><g id="Task"><path d="M27,2h-3v24H8V2H5C4.4,2,4,2.4,4,3v26c0,0.6,0.4,1,1,1h22c0.6,0,1-0.4,1-1V3C28,2.4,27.6,2,27,2z" class="Yellow"/><path d="M20,2V1c0-0.6-0.4-1-1-1h-6c-0.6,0-1,0.4-1,1v1h-2v4h12V2H20z" class="Black"/><path d="M22,10l-8,8l-4-4v4c1.7,1.8,4,4,4,4l8-8V10z" class="Green"/></g></svg>