<svg xmlns="http://www.w3.org/2000/svg" xmlns:xlink="http://www.w3.org/1999/xlink" id="Layer_1" x="0" y="0" version="1.1" viewBox="0 0 32 32" xml:space="preserve" style="enable-background:new 0 0 32 32"><style type="text/css">.Red{fill:#d11c1c}.Black{fill:#727272}</style><polygon points="26 12 24 12 24 8 22 8 22 12 20 12 20 26 22 26 22 30 24 30 24 26 26 26" class="Red"/><polygon points="10 18 8 18 8 8 6 8 6 18 4 18 4 26 6 26 6 30 8 30 8 26 10 26" class="Red"/><g><g><path d="M16,6V2h-2v4h-2v12h2v4h2v-4h2V6H16z M16,16h-2V8h2V16z" class="Black"/></g><g><path d="M16,6V2h-2v4h-2v12h2v4h2v-4h2V6H16z M16,16h-2V8h2V16z" class="Black"/></g></g></svg>