<svg xmlns="http://www.w3.org/2000/svg" xmlns:xlink="http://www.w3.org/1999/xlink" id="Layer_1" x="0" y="0" version="1.1" viewBox="0 0 32 32" xml:space="preserve" style="enable-background:new 0 0 32 32"><style type="text/css">.Blue{fill:#1177d7}</style><path d="M16,2C8.3,2,2,8.3,2,16s6.3,14,14,14s14-6.3,14-14S23.7,2,16,2z M16,28C9.4,28,4,22.6,4,16C4,9.4,9.4,4,16,4	s12,5.4,12,12C28,22.6,22.6,28,16,28z" class="Blue"/><path d="M16,10c-3.3,0-6,2.7-6,6s2.7,6,6,6s6-2.7,6-6S19.3,10,16,10z M16,20c-2.2,0-4-1.8-4-4c0-2.2,1.8-4,4-4	c2.2,0,4,1.8,4,4C20,18.2,18.2,20,16,20z" class="Blue"/></svg>