<svg xmlns="http://www.w3.org/2000/svg" xmlns:xlink="http://www.w3.org/1999/xlink" id="PaidStatus" x="0" y="0" version="1.1" viewBox="0 0 16 16" xml:space="preserve" style="enable-background:new 0 0 16 16"><style type="text/css">.Red{fill:#dd7154}</style><path d="M14,11C14,11,14,11,14,11l0,2.5c0,0.3-0.2,0.5-0.5,0.5h-12C1.2,14,1,13.8,1,13.5v-11C1,2.2,1.2,2,1.5,2h12	C13.8,2,14,2.2,14,2.5V3v2c0,0,0,0,0,0h-3.8C8.5,5,7,6.3,7,7.9C7,9.6,8.3,11,10,11H14z M15,6.5v3c0,0.3-0.2,0.5-0.5,0.5h0h-4.4	C9,10,8.1,9.2,8,8.2C7.9,7,8.8,6,10,6h4.5h0C14.8,6,15,6.2,15,6.5z M11,8c0-0.6-0.4-1-1-1S9,7.4,9,8c0,0.6,0.4,1,1,1S11,8.6,11,8z" class="Red"/></svg>